<?xml version="1.0" standalone="no"?>
 <!DOCTYPE svg PUBLIC "-//W3C//DTD SVG 1.1//EN" 
 "http://www.w3.org/Graphics/SVG/1.1/DTD/svg11.dtd"> 
<svg
  xmlns:svg="http://www.w3.org/2000/svg"
  xmlns="http://www.w3.org/2000/svg"
  xmlns:xlink="http://www.w3.org/1999/xlink"
  version="1.1"
  width="29.700220cm" height="21.000720cm" viewBox="0 0 116930 82680">
<title>SVG Picture created as AnywhereAmps_Preamp-B_SilkS.svg date 2021/09/23 22:16:03 </title>
  <desc>Picture generated by PCBNEW </desc>
<g style="fill:#000000; fill-opacity:1;stroke:#000000; stroke-opacity:1;
stroke-linecap:round; stroke-linejoin:round;"
 transform="translate(0 0) scale(1 1)">
</g>
<g style="fill:#000000; fill-opacity:0.0; 
stroke:#000000; stroke-width:-0.000393701; stroke-opacity:1; 
stroke-linecap:round; stroke-linejoin:round;">
</g>
<g style="fill:#000000; fill-opacity:0.0; 
stroke:#000000; stroke-width:39.3701; stroke-opacity:1; 
stroke-linecap:round; stroke-linejoin:round;">
</g>
<g style="fill:#000000; fill-opacity:0.0; 
stroke:#000000; stroke-width:59.0551; stroke-opacity:1; 
stroke-linecap:round; stroke-linejoin:round;">
<rect x="69685.9" y="65357.2" width="42519.7" height="12598.4" rx="0" />
</g>
<g style="fill:#000000; fill-opacity:0.0; 
stroke:#000000; stroke-width:39.3701; stroke-opacity:1; 
stroke-linecap:round; stroke-linejoin:round;">
</g>
<g style="fill:#000000; fill-opacity:0.0; 
stroke:#000000; stroke-width:59.0551; stroke-opacity:1; 
stroke-linecap:round; stroke-linejoin:round;">
<rect x="3937.01" y="3937.01" width="109056" height="74806" rx="0" />
</g>
<g style="fill:#000000; fill-opacity:0.0; 
stroke:#000000; stroke-width:39.3701; stroke-opacity:1; 
stroke-linecap:round; stroke-linejoin:round;">
</g>
<g style="fill:#000000; fill-opacity:0.0; 
stroke:#000000; stroke-width:59.0551; stroke-opacity:1; 
stroke-linecap:round; stroke-linejoin:round;">
<rect x="4724.41" y="4724.41" width="107481" height="73231.2" rx="0" />
</g>
<g style="fill:#000000; fill-opacity:0.0; 
stroke:#000000; stroke-width:39.3701; stroke-opacity:1; 
stroke-linecap:round; stroke-linejoin:round;">
</g>
<g style="fill:#000000; fill-opacity:0.0; 
stroke:#000000; stroke-width:59.0551; stroke-opacity:1; 
stroke-linecap:round; stroke-linejoin:round;">
<path d="M23622 4724
L23622 3937
" />
</g>
<g style="fill:#000000; fill-opacity:0.0; 
stroke:#000000; stroke-width:39.3701; stroke-opacity:1; 
stroke-linecap:round; stroke-linejoin:round;">
</g>
<g style="fill:#000000; fill-opacity:0.0; 
stroke:#000000; stroke-width:59.0551; stroke-opacity:1; 
stroke-linecap:round; stroke-linejoin:round;">
<path d="M43307 4724
L43307 3937
" />
</g>
<g style="fill:#000000; fill-opacity:0.0; 
stroke:#000000; stroke-width:39.3701; stroke-opacity:1; 
stroke-linecap:round; stroke-linejoin:round;">
</g>
<g style="fill:#000000; fill-opacity:0.0; 
stroke:#000000; stroke-width:59.0551; stroke-opacity:1; 
stroke-linecap:round; stroke-linejoin:round;">
<path d="M62992 4724
L62992 3937
" />
</g>
<g style="fill:#000000; fill-opacity:0.0; 
stroke:#000000; stroke-width:39.3701; stroke-opacity:1; 
stroke-linecap:round; stroke-linejoin:round;">
</g>
<g style="fill:#000000; fill-opacity:0.0; 
stroke:#000000; stroke-width:59.0551; stroke-opacity:1; 
stroke-linecap:round; stroke-linejoin:round;">
<path d="M82677 4724
L82677 3937
" />
</g>
<g style="fill:#000000; fill-opacity:0.0; 
stroke:#000000; stroke-width:39.3701; stroke-opacity:1; 
stroke-linecap:round; stroke-linejoin:round;">
</g>
<g style="fill:#000000; fill-opacity:0.0; 
stroke:#000000; stroke-width:59.0551; stroke-opacity:1; 
stroke-linecap:round; stroke-linejoin:round;">
<path d="M102362 4724
L102362 3937
" />
</g>
<g style="fill:#000000; fill-opacity:0.0; 
stroke:#000000; stroke-width:39.3701; stroke-opacity:1; 
stroke-linecap:round; stroke-linejoin:round;">
</g>
<g style="fill:#000000; fill-opacity:0.0; 
stroke:#000000; stroke-width:59.0551; stroke-opacity:1; 
stroke-linecap:round; stroke-linejoin:round;">
<text x="13779.5" y="4586.61"
textLength="546.494" font-size="682.415" lengthAdjust="spacingAndGlyphs"
text-anchor="start" opacity="0">1</text>
<path d="M14199 4562
L13906 4562
" />
<path d="M14052 4562
L14052 4050
L14004 4123
L13955 4172
L13906 4196
" />
</g>
<g style="fill:#000000; fill-opacity:0.0; 
stroke:#000000; stroke-width:39.3701; stroke-opacity:1; 
stroke-linecap:round; stroke-linejoin:round;">
</g>
<g style="fill:#000000; fill-opacity:0.0; 
stroke:#000000; stroke-width:59.0551; stroke-opacity:1; 
stroke-linecap:round; stroke-linejoin:round;">
<text x="33464.6" y="4586.61"
textLength="546.494" font-size="682.415" lengthAdjust="spacingAndGlyphs"
text-anchor="start" opacity="0">2</text>
<path d="M33591 4099
L33615 4074
L33664 4050
L33786 4050
L33835 4074
L33859 4099
L33884 4147
L33884 4196
L33859 4269
L33567 4562
L33884 4562
" />
</g>
<g style="fill:#000000; fill-opacity:0.0; 
stroke:#000000; stroke-width:39.3701; stroke-opacity:1; 
stroke-linecap:round; stroke-linejoin:round;">
</g>
<g style="fill:#000000; fill-opacity:0.0; 
stroke:#000000; stroke-width:59.0551; stroke-opacity:1; 
stroke-linecap:round; stroke-linejoin:round;">
<text x="53149.6" y="4586.61"
textLength="546.494" font-size="682.415" lengthAdjust="spacingAndGlyphs"
text-anchor="start" opacity="0">3</text>
<path d="M53252 4050
L53569 4050
L53398 4245
L53471 4245
L53520 4269
L53544 4294
L53569 4342
L53569 4464
L53544 4513
L53520 4537
L53471 4562
L53325 4562
L53276 4537
L53252 4513
" />
</g>
<g style="fill:#000000; fill-opacity:0.0; 
stroke:#000000; stroke-width:39.3701; stroke-opacity:1; 
stroke-linecap:round; stroke-linejoin:round;">
</g>
<g style="fill:#000000; fill-opacity:0.0; 
stroke:#000000; stroke-width:59.0551; stroke-opacity:1; 
stroke-linecap:round; stroke-linejoin:round;">
<text x="72834.6" y="4586.61"
textLength="546.494" font-size="682.415" lengthAdjust="spacingAndGlyphs"
text-anchor="start" opacity="0">4</text>
<path d="M73205 4221
L73205 4562
" />
<path d="M73083 4026
L72961 4391
L73278 4391
" />
</g>
<g style="fill:#000000; fill-opacity:0.0; 
stroke:#000000; stroke-width:39.3701; stroke-opacity:1; 
stroke-linecap:round; stroke-linejoin:round;">
</g>
<g style="fill:#000000; fill-opacity:0.0; 
stroke:#000000; stroke-width:59.0551; stroke-opacity:1; 
stroke-linecap:round; stroke-linejoin:round;">
<text x="92519.7" y="4586.61"
textLength="546.494" font-size="682.415" lengthAdjust="spacingAndGlyphs"
text-anchor="start" opacity="0">5</text>
<path d="M92914 4050
L92671 4050
L92646 4294
L92671 4269
L92719 4245
L92841 4245
L92890 4269
L92914 4294
L92939 4342
L92939 4464
L92914 4513
L92890 4537
L92841 4562
L92719 4562
L92671 4537
L92646 4513
" />
</g>
<g style="fill:#000000; fill-opacity:0.0; 
stroke:#000000; stroke-width:39.3701; stroke-opacity:1; 
stroke-linecap:round; stroke-linejoin:round;">
</g>
<g style="fill:#000000; fill-opacity:0.0; 
stroke:#000000; stroke-width:59.0551; stroke-opacity:1; 
stroke-linecap:round; stroke-linejoin:round;">
<text x="112205" y="4586.61"
textLength="546.494" font-size="682.415" lengthAdjust="spacingAndGlyphs"
text-anchor="start" opacity="0">6</text>
<path d="M112575 4050
L112477 4050
L112429 4074
L112404 4099
L112356 4172
L112331 4269
L112331 4464
L112356 4513
L112380 4537
L112429 4562
L112526 4562
L112575 4537
L112599 4513
L112624 4464
L112624 4342
L112599 4294
L112575 4269
L112526 4245
L112429 4245
L112380 4269
L112356 4294
L112331 4342
" />
</g>
<g style="fill:#000000; fill-opacity:0.0; 
stroke:#000000; stroke-width:39.3701; stroke-opacity:1; 
stroke-linecap:round; stroke-linejoin:round;">
</g>
<g style="fill:#000000; fill-opacity:0.0; 
stroke:#000000; stroke-width:59.0551; stroke-opacity:1; 
stroke-linecap:round; stroke-linejoin:round;">
<path d="M23622 77955
L23622 78742
" />
</g>
<g style="fill:#000000; fill-opacity:0.0; 
stroke:#000000; stroke-width:39.3701; stroke-opacity:1; 
stroke-linecap:round; stroke-linejoin:round;">
</g>
<g style="fill:#000000; fill-opacity:0.0; 
stroke:#000000; stroke-width:59.0551; stroke-opacity:1; 
stroke-linecap:round; stroke-linejoin:round;">
<path d="M43307 77955
L43307 78742
" />
</g>
<g style="fill:#000000; fill-opacity:0.0; 
stroke:#000000; stroke-width:39.3701; stroke-opacity:1; 
stroke-linecap:round; stroke-linejoin:round;">
</g>
<g style="fill:#000000; fill-opacity:0.0; 
stroke:#000000; stroke-width:59.0551; stroke-opacity:1; 
stroke-linecap:round; stroke-linejoin:round;">
<path d="M62992 77955
L62992 78742
" />
</g>
<g style="fill:#000000; fill-opacity:0.0; 
stroke:#000000; stroke-width:39.3701; stroke-opacity:1; 
stroke-linecap:round; stroke-linejoin:round;">
</g>
<g style="fill:#000000; fill-opacity:0.0; 
stroke:#000000; stroke-width:59.0551; stroke-opacity:1; 
stroke-linecap:round; stroke-linejoin:round;">
<path d="M82677 77955
L82677 78742
" />
</g>
<g style="fill:#000000; fill-opacity:0.0; 
stroke:#000000; stroke-width:39.3701; stroke-opacity:1; 
stroke-linecap:round; stroke-linejoin:round;">
</g>
<g style="fill:#000000; fill-opacity:0.0; 
stroke:#000000; stroke-width:59.0551; stroke-opacity:1; 
stroke-linecap:round; stroke-linejoin:round;">
<path d="M102362 77955
L102362 78742
" />
</g>
<g style="fill:#000000; fill-opacity:0.0; 
stroke:#000000; stroke-width:39.3701; stroke-opacity:1; 
stroke-linecap:round; stroke-linejoin:round;">
</g>
<g style="fill:#000000; fill-opacity:0.0; 
stroke:#000000; stroke-width:59.0551; stroke-opacity:1; 
stroke-linecap:round; stroke-linejoin:round;">
<text x="13779.5" y="78605.2"
textLength="546.494" font-size="682.415" lengthAdjust="spacingAndGlyphs"
text-anchor="start" opacity="0">1</text>
<path d="M14199 78580
L13906 78580
" />
<path d="M14052 78580
L14052 78069
L14004 78142
L13955 78190
L13906 78215
" />
</g>
<g style="fill:#000000; fill-opacity:0.0; 
stroke:#000000; stroke-width:39.3701; stroke-opacity:1; 
stroke-linecap:round; stroke-linejoin:round;">
</g>
<g style="fill:#000000; fill-opacity:0.0; 
stroke:#000000; stroke-width:59.0551; stroke-opacity:1; 
stroke-linecap:round; stroke-linejoin:round;">
<text x="33464.6" y="78605.2"
textLength="546.494" font-size="682.415" lengthAdjust="spacingAndGlyphs"
text-anchor="start" opacity="0">2</text>
<path d="M33591 78117
L33615 78093
L33664 78069
L33786 78069
L33835 78093
L33859 78117
L33884 78166
L33884 78215
L33859 78288
L33567 78580
L33884 78580
" />
</g>
<g style="fill:#000000; fill-opacity:0.0; 
stroke:#000000; stroke-width:39.3701; stroke-opacity:1; 
stroke-linecap:round; stroke-linejoin:round;">
</g>
<g style="fill:#000000; fill-opacity:0.0; 
stroke:#000000; stroke-width:59.0551; stroke-opacity:1; 
stroke-linecap:round; stroke-linejoin:round;">
<text x="53149.6" y="78605.2"
textLength="546.494" font-size="682.415" lengthAdjust="spacingAndGlyphs"
text-anchor="start" opacity="0">3</text>
<path d="M53252 78069
L53569 78069
L53398 78263
L53471 78263
L53520 78288
L53544 78312
L53569 78361
L53569 78483
L53544 78532
L53520 78556
L53471 78580
L53325 78580
L53276 78556
L53252 78532
" />
</g>
<g style="fill:#000000; fill-opacity:0.0; 
stroke:#000000; stroke-width:39.3701; stroke-opacity:1; 
stroke-linecap:round; stroke-linejoin:round;">
</g>
<g style="fill:#000000; fill-opacity:0.0; 
stroke:#000000; stroke-width:59.0551; stroke-opacity:1; 
stroke-linecap:round; stroke-linejoin:round;">
<text x="72834.6" y="78605.2"
textLength="546.494" font-size="682.415" lengthAdjust="spacingAndGlyphs"
text-anchor="start" opacity="0">4</text>
<path d="M73205 78239
L73205 78580
" />
<path d="M73083 78044
L72961 78410
L73278 78410
" />
</g>
<g style="fill:#000000; fill-opacity:0.0; 
stroke:#000000; stroke-width:39.3701; stroke-opacity:1; 
stroke-linecap:round; stroke-linejoin:round;">
</g>
<g style="fill:#000000; fill-opacity:0.0; 
stroke:#000000; stroke-width:59.0551; stroke-opacity:1; 
stroke-linecap:round; stroke-linejoin:round;">
<text x="92519.7" y="78605.2"
textLength="546.494" font-size="682.415" lengthAdjust="spacingAndGlyphs"
text-anchor="start" opacity="0">5</text>
<path d="M92914 78069
L92671 78069
L92646 78312
L92671 78288
L92719 78263
L92841 78263
L92890 78288
L92914 78312
L92939 78361
L92939 78483
L92914 78532
L92890 78556
L92841 78580
L92719 78580
L92671 78556
L92646 78532
" />
</g>
<g style="fill:#000000; fill-opacity:0.0; 
stroke:#000000; stroke-width:39.3701; stroke-opacity:1; 
stroke-linecap:round; stroke-linejoin:round;">
</g>
<g style="fill:#000000; fill-opacity:0.0; 
stroke:#000000; stroke-width:59.0551; stroke-opacity:1; 
stroke-linecap:round; stroke-linejoin:round;">
<text x="112205" y="78605.2"
textLength="546.494" font-size="682.415" lengthAdjust="spacingAndGlyphs"
text-anchor="start" opacity="0">6</text>
<path d="M112575 78069
L112477 78069
L112429 78093
L112404 78117
L112356 78190
L112331 78288
L112331 78483
L112356 78532
L112380 78556
L112429 78580
L112526 78580
L112575 78556
L112599 78532
L112624 78483
L112624 78361
L112599 78312
L112575 78288
L112526 78263
L112429 78263
L112380 78288
L112356 78312
L112331 78361
" />
</g>
<g style="fill:#000000; fill-opacity:0.0; 
stroke:#000000; stroke-width:39.3701; stroke-opacity:1; 
stroke-linecap:round; stroke-linejoin:round;">
</g>
<g style="fill:#000000; fill-opacity:0.0; 
stroke:#000000; stroke-width:59.0551; stroke-opacity:1; 
stroke-linecap:round; stroke-linejoin:round;">
<path d="M3937 23622
L4724 23622
" />
</g>
<g style="fill:#000000; fill-opacity:0.0; 
stroke:#000000; stroke-width:39.3701; stroke-opacity:1; 
stroke-linecap:round; stroke-linejoin:round;">
</g>
<g style="fill:#000000; fill-opacity:0.0; 
stroke:#000000; stroke-width:59.0551; stroke-opacity:1; 
stroke-linecap:round; stroke-linejoin:round;">
<path d="M3937 43307
L4724 43307
" />
</g>
<g style="fill:#000000; fill-opacity:0.0; 
stroke:#000000; stroke-width:39.3701; stroke-opacity:1; 
stroke-linecap:round; stroke-linejoin:round;">
</g>
<g style="fill:#000000; fill-opacity:0.0; 
stroke:#000000; stroke-width:59.0551; stroke-opacity:1; 
stroke-linecap:round; stroke-linejoin:round;">
<path d="M3937 62992
L4724 62992
" />
</g>
<g style="fill:#000000; fill-opacity:0.0; 
stroke:#000000; stroke-width:39.3701; stroke-opacity:1; 
stroke-linecap:round; stroke-linejoin:round;">
</g>
<g style="fill:#000000; fill-opacity:0.0; 
stroke:#000000; stroke-width:59.0551; stroke-opacity:1; 
stroke-linecap:round; stroke-linejoin:round;">
<text x="4330.71" y="14035.4"
textLength="497.75" font-size="682.415" lengthAdjust="spacingAndGlyphs"
text-anchor="middle" opacity="0">A</text>
<path d="M4208 13864
L4452 13864
" />
<path d="M4160 14011
L4330 13499
L4501 14011
" />
</g>
<g style="fill:#000000; fill-opacity:0.0; 
stroke:#000000; stroke-width:39.3701; stroke-opacity:1; 
stroke-linecap:round; stroke-linejoin:round;">
</g>
<g style="fill:#000000; fill-opacity:0.0; 
stroke:#000000; stroke-width:59.0551; stroke-opacity:1; 
stroke-linecap:round; stroke-linejoin:round;">
<text x="4330.71" y="33720.5"
textLength="570.866" font-size="682.415" lengthAdjust="spacingAndGlyphs"
text-anchor="middle" opacity="0">B</text>
<path d="M4367 33428
L4440 33452
L4464 33476
L4489 33525
L4489 33598
L4464 33647
L4440 33671
L4391 33696
L4196 33696
L4196 33184
L4367 33184
L4416 33208
L4440 33233
L4464 33281
L4464 33330
L4440 33379
L4416 33403
L4367 33428
L4196 33428
" />
</g>
<g style="fill:#000000; fill-opacity:0.0; 
stroke:#000000; stroke-width:39.3701; stroke-opacity:1; 
stroke-linecap:round; stroke-linejoin:round;">
</g>
<g style="fill:#000000; fill-opacity:0.0; 
stroke:#000000; stroke-width:59.0551; stroke-opacity:1; 
stroke-linecap:round; stroke-linejoin:round;">
<text x="4330.71" y="53405.5"
textLength="570.866" font-size="682.415" lengthAdjust="spacingAndGlyphs"
text-anchor="middle" opacity="0">C</text>
<path d="M4489 53332
L4464 53356
L4391 53381
L4342 53381
L4269 53356
L4221 53308
L4196 53259
L4172 53161
L4172 53088
L4196 52991
L4221 52942
L4269 52893
L4342 52869
L4391 52869
L4464 52893
L4489 52918
" />
</g>
<g style="fill:#000000; fill-opacity:0.0; 
stroke:#000000; stroke-width:39.3701; stroke-opacity:1; 
stroke-linecap:round; stroke-linejoin:round;">
</g>
<g style="fill:#000000; fill-opacity:0.0; 
stroke:#000000; stroke-width:59.0551; stroke-opacity:1; 
stroke-linecap:round; stroke-linejoin:round;">
<text x="4330.71" y="73090.6"
textLength="570.866" font-size="682.415" lengthAdjust="spacingAndGlyphs"
text-anchor="middle" opacity="0">D</text>
<path d="M4196 73066
L4196 72554
L4318 72554
L4391 72578
L4440 72627
L4464 72676
L4489 72773
L4489 72846
L4464 72944
L4440 72993
L4391 73041
L4318 73066
L4196 73066
" />
</g>
<g style="fill:#000000; fill-opacity:0.0; 
stroke:#000000; stroke-width:39.3701; stroke-opacity:1; 
stroke-linecap:round; stroke-linejoin:round;">
</g>
<g style="fill:#000000; fill-opacity:0.0; 
stroke:#000000; stroke-width:59.0551; stroke-opacity:1; 
stroke-linecap:round; stroke-linejoin:round;">
<path d="M112992 23622
L112205 23622
" />
</g>
<g style="fill:#000000; fill-opacity:0.0; 
stroke:#000000; stroke-width:39.3701; stroke-opacity:1; 
stroke-linecap:round; stroke-linejoin:round;">
</g>
<g style="fill:#000000; fill-opacity:0.0; 
stroke:#000000; stroke-width:59.0551; stroke-opacity:1; 
stroke-linecap:round; stroke-linejoin:round;">
<path d="M112992 43307
L112205 43307
" />
</g>
<g style="fill:#000000; fill-opacity:0.0; 
stroke:#000000; stroke-width:39.3701; stroke-opacity:1; 
stroke-linecap:round; stroke-linejoin:round;">
</g>
<g style="fill:#000000; fill-opacity:0.0; 
stroke:#000000; stroke-width:59.0551; stroke-opacity:1; 
stroke-linecap:round; stroke-linejoin:round;">
<path d="M112992 62992
L112205 62992
" />
</g>
<g style="fill:#000000; fill-opacity:0.0; 
stroke:#000000; stroke-width:39.3701; stroke-opacity:1; 
stroke-linecap:round; stroke-linejoin:round;">
</g>
<g style="fill:#000000; fill-opacity:0.0; 
stroke:#000000; stroke-width:59.0551; stroke-opacity:1; 
stroke-linecap:round; stroke-linejoin:round;">
<text x="112599" y="14035.4"
textLength="497.75" font-size="682.415" lengthAdjust="spacingAndGlyphs"
text-anchor="middle" opacity="0">A</text>
<path d="M112477 13864
L112721 13864
" />
<path d="M112428 14011
L112599 13499
L112769 14011
" />
</g>
<g style="fill:#000000; fill-opacity:0.0; 
stroke:#000000; stroke-width:39.3701; stroke-opacity:1; 
stroke-linecap:round; stroke-linejoin:round;">
</g>
<g style="fill:#000000; fill-opacity:0.0; 
stroke:#000000; stroke-width:59.0551; stroke-opacity:1; 
stroke-linecap:round; stroke-linejoin:round;">
<text x="112599" y="33720.5"
textLength="570.866" font-size="682.415" lengthAdjust="spacingAndGlyphs"
text-anchor="middle" opacity="0">B</text>
<path d="M112635 33428
L112708 33452
L112733 33476
L112757 33525
L112757 33598
L112733 33647
L112708 33671
L112660 33696
L112465 33696
L112465 33184
L112635 33184
L112684 33208
L112708 33233
L112733 33281
L112733 33330
L112708 33379
L112684 33403
L112635 33428
L112465 33428
" />
</g>
<g style="fill:#000000; fill-opacity:0.0; 
stroke:#000000; stroke-width:39.3701; stroke-opacity:1; 
stroke-linecap:round; stroke-linejoin:round;">
</g>
<g style="fill:#000000; fill-opacity:0.0; 
stroke:#000000; stroke-width:59.0551; stroke-opacity:1; 
stroke-linecap:round; stroke-linejoin:round;">
<text x="112599" y="53405.5"
textLength="570.866" font-size="682.415" lengthAdjust="spacingAndGlyphs"
text-anchor="middle" opacity="0">C</text>
<path d="M112757 53332
L112733 53356
L112660 53381
L112611 53381
L112538 53356
L112489 53308
L112465 53259
L112440 53161
L112440 53088
L112465 52991
L112489 52942
L112538 52893
L112611 52869
L112660 52869
L112733 52893
L112757 52918
" />
</g>
<g style="fill:#000000; fill-opacity:0.0; 
stroke:#000000; stroke-width:39.3701; stroke-opacity:1; 
stroke-linecap:round; stroke-linejoin:round;">
</g>
<g style="fill:#000000; fill-opacity:0.0; 
stroke:#000000; stroke-width:59.0551; stroke-opacity:1; 
stroke-linecap:round; stroke-linejoin:round;">
<text x="112599" y="73090.6"
textLength="570.866" font-size="682.415" lengthAdjust="spacingAndGlyphs"
text-anchor="middle" opacity="0">D</text>
<path d="M112465 73066
L112465 72554
L112587 72554
L112660 72578
L112708 72627
L112733 72676
L112757 72773
L112757 72846
L112733 72944
L112708 72993
L112660 73041
L112587 73066
L112465 73066
" />
</g>
<g style="fill:#000000; fill-opacity:0.0; 
stroke:#000000; stroke-width:39.3701; stroke-opacity:1; 
stroke-linecap:round; stroke-linejoin:round;">
</g>
<g style="fill:#000000; fill-opacity:0.0; 
stroke:#000000; stroke-width:59.0551; stroke-opacity:1; 
stroke-linecap:round; stroke-linejoin:round;">
<text x="78741" y="76321.7"
textLength="2758.72" font-size="787.402" lengthAdjust="spacingAndGlyphs"
text-anchor="start" opacity="0">Date: </text>
<path d="M78911 76293
L78911 75703
L79051 75703
L79136 75731
L79192 75787
L79220 75843
L79248 75956
L79248 76040
L79220 76153
L79192 76209
L79136 76265
L79051 76293
L78911 76293
" />
<path d="M79754 76293
L79754 75984
L79726 75928
L79670 75899
L79557 75899
L79501 75928
" />
<path d="M79754 76265
L79698 76293
L79557 76293
L79501 76265
L79473 76209
L79473 76153
L79501 76096
L79557 76068
L79698 76068
L79754 76040
" />
<path d="M79951 75899
L80176 75899
" />
<path d="M80036 75703
L80036 76209
L80064 76265
L80120 76293
L80176 76293
" />
<path d="M80598 76265
L80542 76293
L80429 76293
L80373 76265
L80345 76209
L80345 75984
L80373 75928
L80429 75899
L80542 75899
L80598 75928
L80626 75984
L80626 76040
L80345 76096
" />
<path d="M80879 76237
L80907 76265
L80879 76293
L80851 76265
L80879 76237
L80879 76293
" />
<path d="M80879 75928
L80907 75956
L80879 75984
L80851 75956
L80879 75928
L80879 75984
" />
</g>
<g style="fill:#000000; fill-opacity:0.0; 
stroke:#000000; stroke-width:39.3701; stroke-opacity:1; 
stroke-linecap:round; stroke-linejoin:round;">
</g>
<g style="fill:#000000; fill-opacity:0.0; 
stroke:#000000; stroke-width:59.0551; stroke-opacity:1; 
stroke-linecap:round; stroke-linejoin:round;">
<path d="M69685 76577
L112205 76577
" />
</g>
<g style="fill:#000000; fill-opacity:0.0; 
stroke:#000000; stroke-width:39.3701; stroke-opacity:1; 
stroke-linecap:round; stroke-linejoin:round;">
</g>
<g style="fill:#000000; fill-opacity:0.0; 
stroke:#000000; stroke-width:59.0551; stroke-opacity:1; 
stroke-linecap:round; stroke-linejoin:round;">
<text x="70079.6" y="77424.1"
textLength="14091.7" font-size="787.402" lengthAdjust="spacingAndGlyphs"
text-anchor="start" opacity="0">KiCad E.D.A.  kicad (5.1.10)-1</text>
<path d="M70249 77395
L70249 76805
" />
<path d="M70587 77395
L70334 77058
" />
<path d="M70587 76805
L70249 77142
" />
<path d="M70840 77395
L70840 77002
" />
<path d="M70840 76805
L70812 76833
L70840 76861
L70868 76833
L70840 76805
L70840 76861
" />
<path d="M71458 77339
L71430 77367
L71346 77395
L71290 77395
L71205 77367
L71149 77311
L71121 77255
L71093 77142
L71093 77058
L71121 76946
L71149 76889
L71205 76833
L71290 76805
L71346 76805
L71430 76833
L71458 76861
" />
<path d="M71965 77395
L71965 77086
L71937 77030
L71880 77002
L71768 77002
L71712 77030
" />
<path d="M71965 77367
L71908 77395
L71768 77395
L71712 77367
L71683 77311
L71683 77255
L71712 77199
L71768 77171
L71908 77171
L71965 77142
" />
<path d="M72499 77395
L72499 76805
" />
<path d="M72499 77367
L72443 77395
L72330 77395
L72274 77367
L72246 77339
L72218 77283
L72218 77114
L72246 77058
L72274 77030
L72330 77002
L72443 77002
L72499 77030
" />
<path d="M73230 77086
L73427 77086
" />
<path d="M73511 77395
L73230 77395
L73230 76805
L73511 76805
" />
<path d="M73764 77339
L73793 77367
L73764 77395
L73736 77367
L73764 77339
L73764 77395
" />
<path d="M74046 77395
L74046 76805
L74186 76805
L74271 76833
L74327 76889
L74355 76946
L74383 77058
L74383 77142
L74355 77255
L74327 77311
L74271 77367
L74186 77395
L74046 77395
" />
<path d="M74636 77339
L74664 77367
L74636 77395
L74608 77367
L74636 77339
L74636 77395
" />
<path d="M74889 77227
L75171 77227
" />
<path d="M74833 77395
L75030 76805
L75227 77395
" />
<path d="M75424 77339
L75452 77367
L75424 77395
L75395 77367
L75424 77339
L75424 77395
" />
<path d="M76605 77395
L76605 76805
" />
<path d="M76661 77171
L76830 77395
" />
<path d="M76830 77002
L76605 77227
" />
<path d="M77083 77395
L77083 77002
" />
<path d="M77083 76805
L77055 76833
L77083 76861
L77111 76833
L77083 76805
L77083 76861
" />
<path d="M77617 77367
L77561 77395
L77448 77395
L77392 77367
L77364 77339
L77336 77283
L77336 77114
L77364 77058
L77392 77030
L77448 77002
L77561 77002
L77617 77030
" />
<path d="M78123 77395
L78123 77086
L78095 77030
L78039 77002
L77926 77002
L77870 77030
" />
<path d="M78123 77367
L78067 77395
L77926 77395
L77870 77367
L77842 77311
L77842 77255
L77870 77199
L77926 77171
L78067 77171
L78123 77142
" />
<path d="M78658 77395
L78658 76805
" />
<path d="M78658 77367
L78601 77395
L78489 77395
L78433 77367
L78404 77339
L78376 77283
L78376 77114
L78404 77058
L78433 77030
L78489 77002
L78601 77002
L78658 77030
" />
<path d="M79557 77620
L79529 77592
L79473 77508
L79445 77452
L79417 77367
L79389 77227
L79389 77114
L79417 76974
L79445 76889
L79473 76833
L79529 76749
L79557 76721
" />
<path d="M80064 76805
L79782 76805
L79754 77086
L79782 77058
L79839 77030
L79979 77030
L80036 77058
L80064 77086
L80092 77142
L80092 77283
L80064 77339
L80036 77367
L79979 77395
L79839 77395
L79782 77367
L79754 77339
" />
<path d="M80345 77339
L80373 77367
L80345 77395
L80317 77367
L80345 77339
L80345 77395
" />
<path d="M80935 77395
L80598 77395
" />
<path d="M80767 77395
L80767 76805
L80710 76889
L80654 76946
L80598 76974
" />
<path d="M81188 77339
L81217 77367
L81188 77395
L81160 77367
L81188 77339
L81188 77395
" />
<path d="M81779 77395
L81442 77395
" />
<path d="M81610 77395
L81610 76805
L81554 76889
L81498 76946
L81442 76974
" />
<path d="M82145 76805
L82201 76805
L82257 76833
L82285 76861
L82313 76917
L82341 77030
L82341 77171
L82313 77283
L82285 77339
L82257 77367
L82201 77395
L82145 77395
L82088 77367
L82060 77339
L82032 77283
L82004 77171
L82004 77030
L82032 76917
L82060 76861
L82088 76833
L82145 76805
" />
<path d="M82538 77620
L82566 77592
L82623 77508
L82651 77452
L82679 77367
L82707 77227
L82707 77114
L82679 76974
L82651 76889
L82623 76833
L82566 76749
L82538 76721
" />
<path d="M82988 77171
L83438 77171
" />
<path d="M84029 77395
L83691 77395
" />
<path d="M83860 77395
L83860 76805
L83804 76889
L83748 76946
L83691 76974
" />
</g>
<g style="fill:#000000; fill-opacity:0.0; 
stroke:#000000; stroke-width:39.3701; stroke-opacity:1; 
stroke-linecap:round; stroke-linejoin:round;">
</g>
<g style="fill:#000000; fill-opacity:0.0; 
stroke:#000000; stroke-width:59.0551; stroke-opacity:1; 
stroke-linecap:round; stroke-linejoin:round;">
<path d="M69685 75396
L112205 75396
" />
</g>
<g style="fill:#000000; fill-opacity:0.0; 
stroke:#000000; stroke-width:39.3701; stroke-opacity:1; 
stroke-linecap:round; stroke-linejoin:round;">
</g>
<g style="fill:#000000; fill-opacity:0.0; 
stroke:#000000; stroke-width:118.11; stroke-opacity:1; 
stroke-linecap:round; stroke-linejoin:round;">
<text x="103544" y="76321.7"
textLength="2899.33" font-size="787.402" lengthAdjust="spacingAndGlyphs"
text-anchor="start" opacity="0">Rev: 1</text>
<path d="M104099 76293
L103902 76012
" />
<path d="M103761 76293
L103761 75703
L103986 75703
L104042 75731
L104070 75759
L104099 75815
L104099 75899
L104070 75956
L104042 75984
L103986 76012
L103761 76012
" />
<path d="M104577 76265
L104520 76293
L104408 76293
L104352 76265
L104323 76209
L104323 75984
L104352 75928
L104408 75899
L104520 75899
L104577 75928
L104605 75984
L104605 76040
L104323 76096
" />
<path d="M104802 75899
L104942 76293
L105083 75899
" />
<path d="M105308 76237
L105336 76265
L105308 76293
L105280 76265
L105308 76237
L105308 76293
" />
<path d="M105308 75928
L105336 75956
L105308 75984
L105280 75956
L105308 75928
L105308 75984
" />
<path d="M106348 76293
L106011 76293
" />
<path d="M106180 76293
L106180 75703
L106123 75787
L106067 75843
L106011 75871
" />
</g>
<g style="fill:#000000; fill-opacity:0.0; 
stroke:#000000; stroke-width:39.3701; stroke-opacity:1; 
stroke-linecap:round; stroke-linejoin:round;">
</g>
<g style="fill:#000000; fill-opacity:0.0; 
stroke:#000000; stroke-width:59.0551; stroke-opacity:1; 
stroke-linecap:round; stroke-linejoin:round;">
<text x="70079.6" y="76321.7"
textLength="3781.21" font-size="787.402" lengthAdjust="spacingAndGlyphs"
text-anchor="start" opacity="0">Size: A4</text>
<path d="M70221 76265
L70305 76293
L70446 76293
L70502 76265
L70530 76237
L70559 76181
L70559 76124
L70530 76068
L70502 76040
L70446 76012
L70334 75984
L70277 75956
L70249 75928
L70221 75871
L70221 75815
L70249 75759
L70277 75731
L70334 75703
L70474 75703
L70559 75731
" />
<path d="M70812 76293
L70812 75899
" />
<path d="M70812 75703
L70784 75731
L70812 75759
L70840 75731
L70812 75703
L70812 75759
" />
<path d="M71037 75899
L71346 75899
L71037 76293
L71346 76293
" />
<path d="M71796 76265
L71740 76293
L71627 76293
L71571 76265
L71543 76209
L71543 75984
L71571 75928
L71627 75899
L71740 75899
L71796 75928
L71824 75984
L71824 76040
L71543 76096
" />
<path d="M72077 76237
L72105 76265
L72077 76293
L72049 76265
L72077 76237
L72077 76293
" />
<path d="M72077 75928
L72105 75956
L72077 75984
L72049 75956
L72077 75928
L72077 75984
" />
<path d="M72780 76124
L73061 76124
" />
<path d="M72724 76293
L72921 75703
L73118 76293
" />
<path d="M73568 75899
L73568 76293
" />
<path d="M73427 75674
L73286 76096
L73652 76096
" />
</g>
<g style="fill:#000000; fill-opacity:0.0; 
stroke:#000000; stroke-width:39.3701; stroke-opacity:1; 
stroke-linecap:round; stroke-linejoin:round;">
</g>
<g style="fill:#000000; fill-opacity:0.0; 
stroke:#000000; stroke-width:59.0551; stroke-opacity:1; 
stroke-linecap:round; stroke-linejoin:round;">
<text x="103544" y="77424.1"
textLength="3349.27" font-size="787.402" lengthAdjust="spacingAndGlyphs"
text-anchor="start" opacity="0">Id: 1/1</text>
<path d="M103714 77395
L103714 76805
" />
<path d="M104248 77395
L104248 76805
" />
<path d="M104248 77367
L104192 77395
L104079 77395
L104023 77367
L103995 77339
L103967 77283
L103967 77114
L103995 77058
L104023 77030
L104079 77002
L104192 77002
L104248 77030
" />
<path d="M104529 77339
L104557 77367
L104529 77395
L104501 77367
L104529 77339
L104529 77395
" />
<path d="M104529 77030
L104557 77058
L104529 77086
L104501 77058
L104529 77030
L104529 77086
" />
<path d="M105570 77395
L105232 77395
" />
<path d="M105401 77395
L105401 76805
L105345 76889
L105289 76946
L105232 76974
" />
<path d="M106245 76777
L105739 77536
" />
<path d="M106751 77395
L106413 77395
" />
<path d="M106582 77395
L106582 76805
L106526 76889
L106470 76946
L106413 76974
" />
</g>
<g style="fill:#000000; fill-opacity:0.0; 
stroke:#000000; stroke-width:39.3701; stroke-opacity:1; 
stroke-linecap:round; stroke-linejoin:round;">
</g>
<g style="fill:#000000; fill-opacity:0.0; 
stroke:#000000; stroke-width:59.0551; stroke-opacity:1; 
stroke-linecap:round; stroke-linejoin:round;">
<path d="M69685 73821
L112205 73821
" />
</g>
<g style="fill:#000000; fill-opacity:0.0; 
stroke:#000000; stroke-width:39.3701; stroke-opacity:1; 
stroke-linecap:round; stroke-linejoin:round;">
</g>
<g style="fill:#000000; fill-opacity:0.0; 
stroke:#000000; stroke-width:157.48; stroke-opacity:1; 
stroke-linecap:round; stroke-linejoin:round;">
<text x="70079.6" y="74924.1"
textLength="3701.14" font-size="1049.87" lengthAdjust="spacingAndGlyphs"
text-anchor="start" opacity="0">Title: </text>
<path d="M70360 74099
L70810 74099
" />
<path d="M70486 74886
L70585 74099
" />
<path d="M70974 74886
L71039 74361
" />
<path d="M71072 74099
L71030 74136
L71063 74174
L71105 74136
L71072 74099
L71063 74174
" />
<path d="M71302 74361
L71602 74361
" />
<path d="M71447 74099
L71363 74774
L71391 74849
L71461 74886
L71536 74886
" />
<path d="M71911 74886
L71841 74849
L71813 74774
L71897 74099
" />
<path d="M72516 74849
L72436 74886
L72286 74886
L72216 74849
L72187 74774
L72225 74474
L72272 74399
L72352 74361
L72501 74361
L72572 74399
L72600 74474
L72591 74549
L72206 74624
" />
<path d="M72895 74811
L72928 74849
L72886 74886
L72853 74849
L72895 74811
L72886 74886
" />
<path d="M72947 74399
L72980 74436
L72937 74474
L72905 74436
L72947 74399
L72937 74474
" />
</g>
<g style="fill:#000000; fill-opacity:0.0; 
stroke:#000000; stroke-width:39.3701; stroke-opacity:1; 
stroke-linecap:round; stroke-linejoin:round;">
</g>
<g style="fill:#000000; fill-opacity:0.0; 
stroke:#000000; stroke-width:59.0551; stroke-opacity:1; 
stroke-linecap:round; stroke-linejoin:round;">
<text x="70079.6" y="73408.3"
textLength="17274.5" font-size="787.402" lengthAdjust="spacingAndGlyphs"
text-anchor="start" opacity="0">File: AnywhereAmps_Preamp.kicad_pcb</text>
<path d="M70446 73070
L70249 73070
" />
<path d="M70249 73380
L70249 72789
L70530 72789
" />
<path d="M70755 73380
L70755 72986
" />
<path d="M70755 72789
L70727 72817
L70755 72845
L70784 72817
L70755 72789
L70755 72845
" />
<path d="M71121 73380
L71065 73352
L71037 73295
L71037 72789
" />
<path d="M71571 73352
L71515 73380
L71402 73380
L71346 73352
L71318 73295
L71318 73070
L71346 73014
L71402 72986
L71515 72986
L71571 73014
L71599 73070
L71599 73127
L71318 73183
" />
<path d="M71852 73323
L71880 73352
L71852 73380
L71824 73352
L71852 73323
L71852 73380
" />
<path d="M71852 73014
L71880 73042
L71852 73070
L71824 73042
L71852 73014
L71852 73070
" />
<path d="M72555 73211
L72836 73211
" />
<path d="M72499 73380
L72696 72789
L72893 73380
" />
<path d="M73090 72986
L73090 73380
" />
<path d="M73090 73042
L73118 73014
L73174 72986
L73258 72986
L73314 73014
L73343 73070
L73343 73380
" />
<path d="M73568 72986
L73708 73380
" />
<path d="M73849 72986
L73708 73380
L73652 73520
L73624 73548
L73568 73577
" />
<path d="M74018 72986
L74130 73380
L74242 73099
L74355 73380
L74467 72986
" />
<path d="M74692 73380
L74692 72789
" />
<path d="M74946 73380
L74946 73070
L74917 73014
L74861 72986
L74777 72986
L74721 73014
L74692 73042
" />
<path d="M75452 73352
L75395 73380
L75283 73380
L75227 73352
L75199 73295
L75199 73070
L75227 73014
L75283 72986
L75395 72986
L75452 73014
L75480 73070
L75480 73127
L75199 73183
" />
<path d="M75733 73380
L75733 72986
" />
<path d="M75733 73099
L75761 73042
L75789 73014
L75845 72986
L75902 72986
" />
<path d="M76323 73352
L76267 73380
L76155 73380
L76099 73352
L76070 73295
L76070 73070
L76099 73014
L76155 72986
L76267 72986
L76323 73014
L76352 73070
L76352 73127
L76070 73183
" />
<path d="M76577 73211
L76858 73211
" />
<path d="M76520 73380
L76717 72789
L76914 73380
" />
<path d="M77111 73380
L77111 72986
" />
<path d="M77111 73042
L77139 73014
L77195 72986
L77280 72986
L77336 73014
L77364 73070
L77364 73380
" />
<path d="M77364 73070
L77392 73014
L77448 72986
L77533 72986
L77589 73014
L77617 73070
L77617 73380
" />
<path d="M77898 72986
L77898 73577
" />
<path d="M77898 73014
L77955 72986
L78067 72986
L78123 73014
L78151 73042
L78180 73099
L78180 73267
L78151 73323
L78123 73352
L78067 73380
L77955 73380
L77898 73352
" />
<path d="M78404 73352
L78461 73380
L78573 73380
L78629 73352
L78658 73295
L78658 73267
L78629 73211
L78573 73183
L78489 73183
L78433 73155
L78404 73099
L78404 73070
L78433 73014
L78489 72986
L78573 72986
L78629 73014
" />
<path d="M78770 73436
L79220 73436
" />
<path d="M79361 73380
L79361 72789
L79586 72789
L79642 72817
L79670 72845
L79698 72902
L79698 72986
L79670 73042
L79642 73070
L79586 73099
L79361 73099
" />
<path d="M79951 73380
L79951 72986
" />
<path d="M79951 73099
L79979 73042
L80007 73014
L80064 72986
L80120 72986
" />
<path d="M80542 73352
L80485 73380
L80373 73380
L80317 73352
L80289 73295
L80289 73070
L80317 73014
L80373 72986
L80485 72986
L80542 73014
L80570 73070
L80570 73127
L80289 73183
" />
<path d="M81076 73380
L81076 73070
L81048 73014
L80992 72986
L80879 72986
L80823 73014
" />
<path d="M81076 73352
L81020 73380
L80879 73380
L80823 73352
L80795 73295
L80795 73239
L80823 73183
L80879 73155
L81020 73155
L81076 73127
" />
<path d="M81357 73380
L81357 72986
" />
<path d="M81357 73042
L81385 73014
L81442 72986
L81526 72986
L81582 73014
L81610 73070
L81610 73380
" />
<path d="M81610 73070
L81638 73014
L81695 72986
L81779 72986
L81835 73014
L81863 73070
L81863 73380
" />
<path d="M82145 72986
L82145 73577
" />
<path d="M82145 73014
L82201 72986
L82313 72986
L82370 73014
L82398 73042
L82426 73099
L82426 73267
L82398 73323
L82370 73352
L82313 73380
L82201 73380
L82145 73352
" />
<path d="M82679 73323
L82707 73352
L82679 73380
L82651 73352
L82679 73323
L82679 73380
" />
<path d="M82960 73380
L82960 72789
" />
<path d="M83016 73155
L83185 73380
" />
<path d="M83185 72986
L82960 73211
" />
<path d="M83438 73380
L83438 72986
" />
<path d="M83438 72789
L83410 72817
L83438 72845
L83466 72817
L83438 72789
L83438 72845
" />
<path d="M83973 73352
L83916 73380
L83804 73380
L83748 73352
L83719 73323
L83691 73267
L83691 73099
L83719 73042
L83748 73014
L83804 72986
L83916 72986
L83973 73014
" />
<path d="M84479 73380
L84479 73070
L84451 73014
L84394 72986
L84282 72986
L84226 73014
" />
<path d="M84479 73352
L84422 73380
L84282 73380
L84226 73352
L84197 73295
L84197 73239
L84226 73183
L84282 73155
L84422 73155
L84479 73127
" />
<path d="M85013 73380
L85013 72789
" />
<path d="M85013 73352
L84957 73380
L84844 73380
L84788 73352
L84760 73323
L84732 73267
L84732 73099
L84760 73042
L84788 73014
L84844 72986
L84957 72986
L85013 73014
" />
<path d="M85154 73436
L85604 73436
" />
<path d="M85744 72986
L85744 73577
" />
<path d="M85744 73014
L85800 72986
L85913 72986
L85969 73014
L85997 73042
L86025 73099
L86025 73267
L85997 73323
L85969 73352
L85913 73380
L85800 73380
L85744 73352
" />
<path d="M86532 73352
L86475 73380
L86363 73380
L86307 73352
L86278 73323
L86250 73267
L86250 73099
L86278 73042
L86307 73014
L86363 72986
L86475 72986
L86532 73014
" />
<path d="M86785 73380
L86785 72789
" />
<path d="M86785 73014
L86841 72986
L86953 72986
L87010 73014
L87038 73042
L87066 73099
L87066 73267
L87038 73323
L87010 73352
L86953 73380
L86841 73380
L86785 73352
" />
</g>
<g style="fill:#000000; fill-opacity:0.0; 
stroke:#000000; stroke-width:39.3701; stroke-opacity:1; 
stroke-linecap:round; stroke-linejoin:round;">
</g>
<g style="fill:#000000; fill-opacity:0.0; 
stroke:#000000; stroke-width:59.0551; stroke-opacity:1; 
stroke-linecap:round; stroke-linejoin:round;">
<path d="M69685 71459
L112205 71459
" />
</g>
<g style="fill:#000000; fill-opacity:0.0; 
stroke:#000000; stroke-width:39.3701; stroke-opacity:1; 
stroke-linecap:round; stroke-linejoin:round;">
</g>
<g style="fill:#000000; fill-opacity:0.0; 
stroke:#000000; stroke-width:59.0551; stroke-opacity:1; 
stroke-linecap:round; stroke-linejoin:round;">
<text x="70079.6" y="72345.4"
textLength="3236.78" font-size="787.402" lengthAdjust="spacingAndGlyphs"
text-anchor="start" opacity="0">Sheet: </text>
<path d="M70221 72289
L70305 72317
L70446 72317
L70502 72289
L70530 72260
L70559 72204
L70559 72148
L70530 72092
L70502 72064
L70446 72036
L70334 72007
L70277 71979
L70249 71951
L70221 71895
L70221 71839
L70249 71782
L70277 71754
L70334 71726
L70474 71726
L70559 71754
" />
<path d="M70812 72317
L70812 71726
" />
<path d="M71065 72317
L71065 72007
L71037 71951
L70980 71923
L70896 71923
L70840 71951
L70812 71979
" />
<path d="M71571 72289
L71515 72317
L71402 72317
L71346 72289
L71318 72232
L71318 72007
L71346 71951
L71402 71923
L71515 71923
L71571 71951
L71599 72007
L71599 72064
L71318 72120
" />
<path d="M72077 72289
L72021 72317
L71908 72317
L71852 72289
L71824 72232
L71824 72007
L71852 71951
L71908 71923
L72021 71923
L72077 71951
L72105 72007
L72105 72064
L71824 72120
" />
<path d="M72274 71923
L72499 71923
" />
<path d="M72358 71726
L72358 72232
L72386 72289
L72443 72317
L72499 72317
" />
<path d="M72696 72260
L72724 72289
L72696 72317
L72668 72289
L72696 72260
L72696 72317
" />
<path d="M72696 71951
L72724 71979
L72696 72007
L72668 71979
L72696 71951
L72696 72007
" />
</g>
<g style="fill:#000000; fill-opacity:0.0; 
stroke:#000000; stroke-width:39.3701; stroke-opacity:1; 
stroke-linecap:round; stroke-linejoin:round;">
</g>
<g style="fill:#000000; fill-opacity:0.0; 
stroke:#000000; stroke-width:59.0551; stroke-opacity:1; 
stroke-linecap:round; stroke-linejoin:round;">
<path d="M77559 75396
L77559 76577
" />
</g>
<g style="fill:#000000; fill-opacity:0.0; 
stroke:#000000; stroke-width:39.3701; stroke-opacity:1; 
stroke-linecap:round; stroke-linejoin:round;">
</g>
<g style="fill:#000000; fill-opacity:0.0; 
stroke:#000000; stroke-width:59.0551; stroke-opacity:1; 
stroke-linecap:round; stroke-linejoin:round;">
<path d="M102756 75396
L102756 77955
" />
</g>
<g style="fill:#840084; fill-opacity:0.0; 
stroke:#840084; stroke-width:59.0551; stroke-opacity:1; 
stroke-linecap:round; stroke-linejoin:round;">
</g>
<g style="fill:#840084; fill-opacity:0.0; 
stroke:#840084; stroke-width:39.3701; stroke-opacity:1; 
stroke-linecap:round; stroke-linejoin:round;">
<text x="66300" y="44278"
transform="scale(-1 1) translate(-132600.000000 0)"
textLength="8894.83" font-size="419.947" lengthAdjust="spacingAndGlyphs"
text-anchor="start" opacity="0">383k -- R1, R7, R9, R15, R16, R17</text>
<path d="M66229 43947
L66034 43947
L66139 44067
L66094 44067
L66064 44082
L66049 44097
L66034 44127
L66034 44202
L66049 44232
L66064 44247
L66094 44262
L66184 44262
L66214 44247
L66229 44232
" />
<path d="M65854 44082
L65884 44067
L65899 44052
L65914 44022
L65914 44007
L65899 43977
L65884 43962
L65854 43947
L65794 43947
L65764 43962
L65749 43977
L65734 44007
L65734 44022
L65749 44052
L65764 44067
L65794 44082
L65854 44082
L65884 44097
L65899 44112
L65914 44142
L65914 44202
L65899 44232
L65884 44247
L65854 44262
L65794 44262
L65764 44247
L65749 44232
L65734 44202
L65734 44142
L65749 44112
L65764 44097
L65794 44082
" />
<path d="M65629 43947
L65434 43947
L65539 44067
L65494 44067
L65464 44082
L65449 44097
L65434 44127
L65434 44202
L65449 44232
L65464 44247
L65494 44262
L65584 44262
L65614 44247
L65629 44232
" />
<path d="M65299 44262
L65299 43947
" />
<path d="M65269 44142
L65179 44262
" />
<path d="M65179 44052
L65299 44172
" />
<path d="M64804 44142
L64564 44142
" />
<path d="M64414 44142
L64174 44142
" />
<path d="M63604 44262
L63709 44112
" />
<path d="M63784 44262
L63784 43947
L63664 43947
L63634 43962
L63619 43977
L63604 44007
L63604 44052
L63619 44082
L63634 44097
L63664 44112
L63784 44112
" />
<path d="M63304 44262
L63484 44262
" />
<path d="M63394 44262
L63394 43947
L63424 43992
L63454 44022
L63484 44037
" />
<path d="M63154 44247
L63154 44262
L63169 44292
L63184 44307
" />
<path d="M62599 44262
L62704 44112
" />
<path d="M62779 44262
L62779 43947
L62659 43947
L62629 43962
L62614 43977
L62599 44007
L62599 44052
L62614 44082
L62629 44097
L62659 44112
L62779 44112
" />
<path d="M62494 43947
L62284 43947
L62419 44262
" />
<path d="M62149 44247
L62149 44262
L62164 44292
L62179 44307
" />
<path d="M61594 44262
L61699 44112
" />
<path d="M61774 44262
L61774 43947
L61654 43947
L61624 43962
L61609 43977
L61594 44007
L61594 44052
L61609 44082
L61624 44097
L61654 44112
L61774 44112
" />
<path d="M61445 44262
L61385 44262
L61355 44247
L61340 44232
L61310 44187
L61295 44127
L61295 44007
L61310 43977
L61325 43962
L61355 43947
L61415 43947
L61445 43962
L61460 43977
L61475 44007
L61475 44082
L61460 44112
L61445 44127
L61415 44142
L61355 44142
L61325 44127
L61310 44112
L61295 44082
" />
<path d="M61145 44247
L61145 44262
L61160 44292
L61175 44307
" />
<path d="M60590 44262
L60695 44112
" />
<path d="M60770 44262
L60770 43947
L60650 43947
L60620 43962
L60605 43977
L60590 44007
L60590 44052
L60605 44082
L60620 44097
L60650 44112
L60770 44112
" />
<path d="M60290 44262
L60470 44262
" />
<path d="M60380 44262
L60380 43947
L60410 43992
L60440 44022
L60470 44037
" />
<path d="M60005 43947
L60155 43947
L60170 44097
L60155 44082
L60125 44067
L60050 44067
L60020 44082
L60005 44097
L59990 44127
L59990 44202
L60005 44232
L60020 44247
L60050 44262
L60125 44262
L60155 44247
L60170 44232
" />
<path d="M59840 44247
L59840 44262
L59855 44292
L59870 44307
" />
<path d="M59285 44262
L59390 44112
" />
<path d="M59465 44262
L59465 43947
L59345 43947
L59315 43962
L59300 43977
L59285 44007
L59285 44052
L59300 44082
L59315 44097
L59345 44112
L59465 44112
" />
<path d="M58985 44262
L59165 44262
" />
<path d="M59075 44262
L59075 43947
L59105 43992
L59135 44022
L59165 44037
" />
<path d="M58715 43947
L58775 43947
L58805 43962
L58820 43977
L58850 44022
L58865 44082
L58865 44202
L58850 44232
L58835 44247
L58805 44262
L58745 44262
L58715 44247
L58700 44232
L58685 44202
L58685 44127
L58700 44097
L58715 44082
L58745 44067
L58805 44067
L58835 44082
L58850 44097
L58865 44127
" />
<path d="M58535 44247
L58535 44262
L58550 44292
L58565 44307
" />
<path d="M57980 44262
L58085 44112
" />
<path d="M58160 44262
L58160 43947
L58040 43947
L58010 43962
L57995 43977
L57980 44007
L57980 44052
L57995 44082
L58010 44097
L58040 44112
L58160 44112
" />
<path d="M57680 44262
L57860 44262
" />
<path d="M57770 44262
L57770 43947
L57800 43992
L57830 44022
L57860 44037
" />
<path d="M57575 43947
L57365 43947
L57500 44262
" />
<text x="66300" y="44789.8"
transform="scale(-1 1) translate(-132600.000000 0)"
textLength="16071.8" font-size="419.947" lengthAdjust="spacingAndGlyphs"
text-anchor="start" opacity="0">10k  -- R2, R3, R4, R5, R6, R13, R18, R19, R20, R21, R22, R23</text>
<path d="M66034 44774
L66214 44774
" />
<path d="M66124 44774
L66124 44459
L66154 44504
L66184 44534
L66214 44549
" />
<path d="M65839 44459
L65809 44459
L65779 44474
L65764 44489
L65749 44519
L65734 44579
L65734 44654
L65749 44714
L65764 44744
L65779 44759
L65809 44774
L65839 44774
L65869 44759
L65884 44744
L65899 44714
L65914 44654
L65914 44579
L65899 44519
L65884 44489
L65869 44474
L65839 44459
" />
<path d="M65599 44774
L65599 44459
" />
<path d="M65569 44654
L65479 44774
" />
<path d="M65479 44564
L65599 44684
" />
<path d="M64864 44654
L64624 44654
" />
<path d="M64474 44654
L64234 44654
" />
<path d="M63664 44774
L63769 44624
" />
<path d="M63844 44774
L63844 44459
L63724 44459
L63694 44474
L63679 44489
L63664 44519
L63664 44564
L63679 44594
L63694 44609
L63724 44624
L63844 44624
" />
<path d="M63544 44489
L63529 44474
L63499 44459
L63424 44459
L63394 44474
L63379 44489
L63364 44519
L63364 44549
L63379 44594
L63559 44774
L63364 44774
" />
<path d="M63214 44759
L63214 44774
L63229 44804
L63244 44819
" />
<path d="M62659 44774
L62764 44624
" />
<path d="M62839 44774
L62839 44459
L62719 44459
L62689 44474
L62674 44489
L62659 44519
L62659 44564
L62674 44594
L62689 44609
L62719 44624
L62839 44624
" />
<path d="M62554 44459
L62359 44459
L62464 44579
L62419 44579
L62389 44594
L62374 44609
L62359 44639
L62359 44714
L62374 44744
L62389 44759
L62419 44774
L62509 44774
L62539 44759
L62554 44744
" />
<path d="M62209 44759
L62209 44774
L62224 44804
L62239 44819
" />
<path d="M61654 44774
L61759 44624
" />
<path d="M61834 44774
L61834 44459
L61714 44459
L61684 44474
L61669 44489
L61654 44519
L61654 44564
L61669 44594
L61684 44609
L61714 44624
L61834 44624
" />
<path d="M61385 44564
L61385 44774
" />
<path d="M61460 44444
L61535 44669
L61340 44669
" />
<path d="M61205 44759
L61205 44774
L61220 44804
L61235 44819
" />
<path d="M60650 44774
L60755 44624
" />
<path d="M60830 44774
L60830 44459
L60710 44459
L60680 44474
L60665 44489
L60650 44519
L60650 44564
L60665 44594
L60680 44609
L60710 44624
L60830 44624
" />
<path d="M60365 44459
L60515 44459
L60530 44609
L60515 44594
L60485 44579
L60410 44579
L60380 44594
L60365 44609
L60350 44639
L60350 44714
L60365 44744
L60380 44759
L60410 44774
L60485 44774
L60515 44759
L60530 44744
" />
<path d="M60200 44759
L60200 44774
L60215 44804
L60230 44819
" />
<path d="M59645 44774
L59750 44624
" />
<path d="M59825 44774
L59825 44459
L59705 44459
L59675 44474
L59660 44489
L59645 44519
L59645 44564
L59660 44594
L59675 44609
L59705 44624
L59825 44624
" />
<path d="M59375 44459
L59435 44459
L59465 44474
L59480 44489
L59510 44534
L59525 44594
L59525 44714
L59510 44744
L59495 44759
L59465 44774
L59405 44774
L59375 44759
L59360 44744
L59345 44714
L59345 44639
L59360 44609
L59375 44594
L59405 44579
L59465 44579
L59495 44594
L59510 44609
L59525 44639
" />
<path d="M59195 44759
L59195 44774
L59210 44804
L59225 44819
" />
<path d="M58640 44774
L58745 44624
" />
<path d="M58820 44774
L58820 44459
L58700 44459
L58670 44474
L58655 44489
L58640 44519
L58640 44564
L58655 44594
L58670 44609
L58700 44624
L58820 44624
" />
<path d="M58340 44774
L58520 44774
" />
<path d="M58430 44774
L58430 44459
L58460 44504
L58490 44534
L58520 44549
" />
<path d="M58235 44459
L58040 44459
L58145 44579
L58100 44579
L58070 44594
L58055 44609
L58040 44639
L58040 44714
L58055 44744
L58070 44759
L58100 44774
L58190 44774
L58220 44759
L58235 44744
" />
<path d="M57890 44759
L57890 44774
L57905 44804
L57920 44819
" />
<path d="M57335 44774
L57440 44624
" />
<path d="M57515 44774
L57515 44459
L57395 44459
L57365 44474
L57350 44489
L57335 44519
L57335 44564
L57350 44594
L57365 44609
L57395 44624
L57515 44624
" />
<path d="M57035 44774
L57215 44774
" />
<path d="M57125 44774
L57125 44459
L57155 44504
L57185 44534
L57215 44549
" />
<path d="M56855 44594
L56885 44579
L56900 44564
L56915 44534
L56915 44519
L56900 44489
L56885 44474
L56855 44459
L56795 44459
L56765 44474
L56750 44489
L56735 44519
L56735 44534
L56750 44564
L56765 44579
L56795 44594
L56855 44594
L56885 44609
L56900 44624
L56915 44654
L56915 44714
L56900 44744
L56885 44759
L56855 44774
L56795 44774
L56765 44759
L56750 44744
L56735 44714
L56735 44654
L56750 44624
L56765 44609
L56795 44594
" />
<path d="M56585 44759
L56585 44774
L56600 44804
L56615 44819
" />
<path d="M56030 44774
L56135 44624
" />
<path d="M56210 44774
L56210 44459
L56090 44459
L56060 44474
L56045 44489
L56030 44519
L56030 44564
L56045 44594
L56060 44609
L56090 44624
L56210 44624
" />
<path d="M55730 44774
L55910 44774
" />
<path d="M55820 44774
L55820 44459
L55850 44504
L55880 44534
L55910 44549
" />
<path d="M55580 44774
L55520 44774
L55490 44759
L55475 44744
L55445 44699
L55430 44639
L55430 44519
L55445 44489
L55460 44474
L55490 44459
L55550 44459
L55580 44474
L55595 44489
L55610 44519
L55610 44594
L55595 44624
L55580 44639
L55550 44654
L55490 44654
L55460 44639
L55445 44624
L55430 44594
" />
<path d="M55280 44759
L55280 44774
L55295 44804
L55310 44819
" />
<path d="M54725 44774
L54830 44624
" />
<path d="M54905 44774
L54905 44459
L54785 44459
L54755 44474
L54740 44489
L54725 44519
L54725 44564
L54740 44594
L54755 44609
L54785 44624
L54905 44624
" />
<path d="M54605 44489
L54590 44474
L54560 44459
L54485 44459
L54455 44474
L54440 44489
L54425 44519
L54425 44549
L54440 44594
L54620 44774
L54425 44774
" />
<path d="M54230 44459
L54200 44459
L54170 44474
L54155 44489
L54140 44519
L54125 44579
L54125 44654
L54140 44714
L54155 44744
L54170 44759
L54200 44774
L54230 44774
L54260 44759
L54275 44744
L54290 44714
L54305 44654
L54305 44579
L54290 44519
L54275 44489
L54260 44474
L54230 44459
" />
<path d="M53975 44759
L53975 44774
L53990 44804
L54005 44819
" />
<path d="M53421 44774
L53526 44624
" />
<path d="M53600 44774
L53600 44459
L53481 44459
L53451 44474
L53436 44489
L53421 44519
L53421 44564
L53436 44594
L53451 44609
L53481 44624
L53600 44624
" />
<path d="M53301 44489
L53286 44474
L53256 44459
L53181 44459
L53151 44474
L53136 44489
L53121 44519
L53121 44549
L53136 44594
L53316 44774
L53121 44774
" />
<path d="M52821 44774
L53001 44774
" />
<path d="M52911 44774
L52911 44459
L52941 44504
L52971 44534
L53001 44549
" />
<path d="M52671 44759
L52671 44774
L52686 44804
L52701 44819
" />
<path d="M52116 44774
L52221 44624
" />
<path d="M52296 44774
L52296 44459
L52176 44459
L52146 44474
L52131 44489
L52116 44519
L52116 44564
L52131 44594
L52146 44609
L52176 44624
L52296 44624
" />
<path d="M51996 44489
L51981 44474
L51951 44459
L51876 44459
L51846 44474
L51831 44489
L51816 44519
L51816 44549
L51831 44594
L52011 44774
L51816 44774
" />
<path d="M51696 44489
L51681 44474
L51651 44459
L51576 44459
L51546 44474
L51531 44489
L51516 44519
L51516 44549
L51531 44594
L51711 44774
L51516 44774
" />
<path d="M51366 44759
L51366 44774
L51381 44804
L51396 44819
" />
<path d="M50811 44774
L50916 44624
" />
<path d="M50991 44774
L50991 44459
L50871 44459
L50841 44474
L50826 44489
L50811 44519
L50811 44564
L50826 44594
L50841 44609
L50871 44624
L50991 44624
" />
<path d="M50691 44489
L50676 44474
L50646 44459
L50571 44459
L50541 44474
L50526 44489
L50511 44519
L50511 44549
L50526 44594
L50706 44774
L50511 44774
" />
<path d="M50406 44459
L50211 44459
L50316 44579
L50271 44579
L50241 44594
L50226 44609
L50211 44639
L50211 44714
L50226 44744
L50241 44759
L50271 44774
L50361 44774
L50391 44759
L50406 44744
" />
<text x="66300" y="45301.6"
transform="scale(-1 1) translate(-132600.000000 0)"
textLength="8347.77" font-size="419.947" lengthAdjust="spacingAndGlyphs"
text-anchor="start" opacity="0">1.25k -- R8, R10, R11, R12, R14</text>
<path d="M66034 45286
L66214 45286
" />
<path d="M66124 45286
L66124 44971
L66154 45016
L66184 45046
L66214 45061
" />
<path d="M65899 45256
L65884 45271
L65899 45286
L65914 45271
L65899 45256
L65899 45286
" />
<path d="M65764 45001
L65749 44986
L65719 44971
L65644 44971
L65614 44986
L65599 45001
L65584 45031
L65584 45061
L65599 45106
L65779 45286
L65584 45286
" />
<path d="M65299 44971
L65449 44971
L65464 45121
L65449 45106
L65419 45091
L65344 45091
L65314 45106
L65299 45121
L65284 45151
L65284 45226
L65299 45256
L65314 45271
L65344 45286
L65419 45286
L65449 45271
L65464 45256
" />
<path d="M65149 45286
L65149 44971
" />
<path d="M65119 45166
L65029 45286
" />
<path d="M65029 45076
L65149 45196
" />
<path d="M64654 45166
L64414 45166
" />
<path d="M64264 45166
L64024 45166
" />
<path d="M63454 45286
L63559 45136
" />
<path d="M63634 45286
L63634 44971
L63514 44971
L63484 44986
L63469 45001
L63454 45031
L63454 45076
L63469 45106
L63484 45121
L63514 45136
L63634 45136
" />
<path d="M63274 45106
L63304 45091
L63319 45076
L63334 45046
L63334 45031
L63319 45001
L63304 44986
L63274 44971
L63214 44971
L63184 44986
L63169 45001
L63154 45031
L63154 45046
L63169 45076
L63184 45091
L63214 45106
L63274 45106
L63304 45121
L63319 45136
L63334 45166
L63334 45226
L63319 45256
L63304 45271
L63274 45286
L63214 45286
L63184 45271
L63169 45256
L63154 45226
L63154 45166
L63169 45136
L63184 45121
L63214 45106
" />
<path d="M63004 45271
L63004 45286
L63019 45316
L63034 45331
" />
<path d="M62449 45286
L62554 45136
" />
<path d="M62629 45286
L62629 44971
L62509 44971
L62479 44986
L62464 45001
L62449 45031
L62449 45076
L62464 45106
L62479 45121
L62509 45136
L62629 45136
" />
<path d="M62149 45286
L62329 45286
" />
<path d="M62239 45286
L62239 44971
L62269 45016
L62299 45046
L62329 45061
" />
<path d="M61954 44971
L61924 44971
L61894 44986
L61879 45001
L61864 45031
L61849 45091
L61849 45166
L61864 45226
L61879 45256
L61894 45271
L61924 45286
L61954 45286
L61984 45271
L61999 45256
L62014 45226
L62029 45166
L62029 45091
L62014 45031
L61999 45001
L61984 44986
L61954 44971
" />
<path d="M61699 45271
L61699 45286
L61714 45316
L61729 45331
" />
<path d="M61145 45286
L61250 45136
" />
<path d="M61325 45286
L61325 44971
L61205 44971
L61175 44986
L61160 45001
L61145 45031
L61145 45076
L61160 45106
L61175 45121
L61205 45136
L61325 45136
" />
<path d="M60845 45286
L61025 45286
" />
<path d="M60935 45286
L60935 44971
L60965 45016
L60995 45046
L61025 45061
" />
<path d="M60545 45286
L60725 45286
" />
<path d="M60635 45286
L60635 44971
L60665 45016
L60695 45046
L60725 45061
" />
<path d="M60395 45271
L60395 45286
L60410 45316
L60425 45331
" />
<path d="M59840 45286
L59945 45136
" />
<path d="M60020 45286
L60020 44971
L59900 44971
L59870 44986
L59855 45001
L59840 45031
L59840 45076
L59855 45106
L59870 45121
L59900 45136
L60020 45136
" />
<path d="M59540 45286
L59720 45286
" />
<path d="M59630 45286
L59630 44971
L59660 45016
L59690 45046
L59720 45061
" />
<path d="M59420 45001
L59405 44986
L59375 44971
L59300 44971
L59270 44986
L59255 45001
L59240 45031
L59240 45061
L59255 45106
L59435 45286
L59240 45286
" />
<path d="M59090 45271
L59090 45286
L59105 45316
L59120 45331
" />
<path d="M58535 45286
L58640 45136
" />
<path d="M58715 45286
L58715 44971
L58595 44971
L58565 44986
L58550 45001
L58535 45031
L58535 45076
L58550 45106
L58565 45121
L58595 45136
L58715 45136
" />
<path d="M58235 45286
L58415 45286
" />
<path d="M58325 45286
L58325 44971
L58355 45016
L58385 45046
L58415 45061
" />
<path d="M57965 45076
L57965 45286
" />
<path d="M58040 44956
L58115 45181
L57920 45181
" />
<text x="66300" y="45813.4"
transform="scale(-1 1) translate(-132600.000000 0)"
textLength="11497.4" font-size="419.947" lengthAdjust="spacingAndGlyphs"
text-anchor="start" opacity="0">4.7u -- C1, C2, C3, C6, C7, C8, C9, C14, C15</text>
<path d="M66064 45588
L66064 45798
" />
<path d="M66139 45468
L66214 45693
L66019 45693
" />
<path d="M65899 45768
L65884 45783
L65899 45798
L65914 45783
L65899 45768
L65899 45798
" />
<path d="M65779 45483
L65569 45483
L65704 45798
" />
<path d="M65314 45588
L65314 45798
" />
<path d="M65449 45588
L65449 45753
L65434 45783
L65404 45798
L65359 45798
L65329 45783
L65314 45768
" />
<path d="M64924 45678
L64684 45678
" />
<path d="M64534 45678
L64294 45678
" />
<path d="M63724 45768
L63739 45783
L63784 45798
L63814 45798
L63859 45783
L63889 45753
L63904 45723
L63919 45663
L63919 45618
L63904 45558
L63889 45528
L63859 45498
L63814 45483
L63784 45483
L63739 45498
L63724 45513
" />
<path d="M63424 45798
L63604 45798
" />
<path d="M63514 45798
L63514 45483
L63544 45528
L63574 45558
L63604 45573
" />
<path d="M63274 45783
L63274 45798
L63289 45828
L63304 45843
" />
<path d="M62719 45768
L62734 45783
L62779 45798
L62809 45798
L62854 45783
L62884 45753
L62899 45723
L62914 45663
L62914 45618
L62899 45558
L62884 45528
L62854 45498
L62809 45483
L62779 45483
L62734 45498
L62719 45513
" />
<path d="M62599 45513
L62584 45498
L62554 45483
L62479 45483
L62449 45498
L62434 45513
L62419 45543
L62419 45573
L62434 45618
L62614 45798
L62419 45798
" />
<path d="M62269 45783
L62269 45798
L62284 45828
L62299 45843
" />
<path d="M61714 45768
L61729 45783
L61774 45798
L61804 45798
L61849 45783
L61879 45753
L61894 45723
L61909 45663
L61909 45618
L61894 45558
L61879 45528
L61849 45498
L61804 45483
L61774 45483
L61729 45498
L61714 45513
" />
<path d="M61609 45483
L61415 45483
L61520 45603
L61475 45603
L61445 45618
L61430 45633
L61415 45663
L61415 45738
L61430 45768
L61445 45783
L61475 45798
L61564 45798
L61594 45783
L61609 45768
" />
<path d="M61265 45783
L61265 45798
L61280 45828
L61295 45843
" />
<path d="M60710 45768
L60725 45783
L60770 45798
L60800 45798
L60845 45783
L60875 45753
L60890 45723
L60905 45663
L60905 45618
L60890 45558
L60875 45528
L60845 45498
L60800 45483
L60770 45483
L60725 45498
L60710 45513
" />
<path d="M60440 45483
L60500 45483
L60530 45498
L60545 45513
L60575 45558
L60590 45618
L60590 45738
L60575 45768
L60560 45783
L60530 45798
L60470 45798
L60440 45783
L60425 45768
L60410 45738
L60410 45663
L60425 45633
L60440 45618
L60470 45603
L60530 45603
L60560 45618
L60575 45633
L60590 45663
" />
<path d="M60260 45783
L60260 45798
L60275 45828
L60290 45843
" />
<path d="M59705 45768
L59720 45783
L59765 45798
L59795 45798
L59840 45783
L59870 45753
L59885 45723
L59900 45663
L59900 45618
L59885 45558
L59870 45528
L59840 45498
L59795 45483
L59765 45483
L59720 45498
L59705 45513
" />
<path d="M59600 45483
L59390 45483
L59525 45798
" />
<path d="M59255 45783
L59255 45798
L59270 45828
L59285 45843
" />
<path d="M58700 45768
L58715 45783
L58760 45798
L58790 45798
L58835 45783
L58865 45753
L58880 45723
L58895 45663
L58895 45618
L58880 45558
L58865 45528
L58835 45498
L58790 45483
L58760 45483
L58715 45498
L58700 45513
" />
<path d="M58520 45618
L58550 45603
L58565 45588
L58580 45558
L58580 45543
L58565 45513
L58550 45498
L58520 45483
L58460 45483
L58430 45498
L58415 45513
L58400 45543
L58400 45558
L58415 45588
L58430 45603
L58460 45618
L58520 45618
L58550 45633
L58565 45648
L58580 45678
L58580 45738
L58565 45768
L58550 45783
L58520 45798
L58460 45798
L58430 45783
L58415 45768
L58400 45738
L58400 45678
L58415 45648
L58430 45633
L58460 45618
" />
<path d="M58250 45783
L58250 45798
L58265 45828
L58280 45843
" />
<path d="M57695 45768
L57710 45783
L57755 45798
L57785 45798
L57830 45783
L57860 45753
L57875 45723
L57890 45663
L57890 45618
L57875 45558
L57860 45528
L57830 45498
L57785 45483
L57755 45483
L57710 45498
L57695 45513
" />
<path d="M57545 45798
L57485 45798
L57455 45783
L57440 45768
L57410 45723
L57395 45663
L57395 45543
L57410 45513
L57425 45498
L57455 45483
L57515 45483
L57545 45498
L57560 45513
L57575 45543
L57575 45618
L57560 45648
L57545 45663
L57515 45678
L57455 45678
L57425 45663
L57410 45648
L57395 45618
" />
<path d="M57245 45783
L57245 45798
L57260 45828
L57275 45843
" />
<path d="M56690 45768
L56705 45783
L56750 45798
L56780 45798
L56825 45783
L56855 45753
L56870 45723
L56885 45663
L56885 45618
L56870 45558
L56855 45528
L56825 45498
L56780 45483
L56750 45483
L56705 45498
L56690 45513
" />
<path d="M56390 45798
L56570 45798
" />
<path d="M56480 45798
L56480 45483
L56510 45528
L56540 45558
L56570 45573
" />
<path d="M56120 45588
L56120 45798
" />
<path d="M56195 45468
L56270 45693
L56075 45693
" />
<path d="M55940 45783
L55940 45798
L55955 45828
L55970 45843
" />
<path d="M55385 45768
L55400 45783
L55445 45798
L55475 45798
L55520 45783
L55550 45753
L55565 45723
L55580 45663
L55580 45618
L55565 45558
L55550 45528
L55520 45498
L55475 45483
L55445 45483
L55400 45498
L55385 45513
" />
<path d="M55085 45798
L55265 45798
" />
<path d="M55175 45798
L55175 45483
L55205 45528
L55235 45558
L55265 45573
" />
<path d="M54800 45483
L54950 45483
L54965 45633
L54950 45618
L54920 45603
L54845 45603
L54815 45618
L54800 45633
L54785 45663
L54785 45738
L54800 45768
L54815 45783
L54845 45798
L54920 45798
L54950 45783
L54965 45768
" />
<text x="66300" y="46325.2"
transform="scale(-1 1) translate(-132600.000000 0)"
textLength="3953.32" font-size="419.947" lengthAdjust="spacingAndGlyphs"
text-anchor="start" opacity="0">22u  -- C4, C5</text>
<path d="M66214 46025
L66199 46010
L66169 45995
L66094 45995
L66064 46010
L66049 46025
L66034 46055
L66034 46085
L66049 46130
L66229 46310
L66034 46310
" />
<path d="M65914 46025
L65899 46010
L65869 45995
L65794 45995
L65764 46010
L65749 46025
L65734 46055
L65734 46085
L65749 46130
L65929 46310
L65734 46310
" />
<path d="M65464 46100
L65464 46310
" />
<path d="M65599 46100
L65599 46265
L65584 46295
L65554 46310
L65509 46310
L65479 46295
L65464 46280
" />
<path d="M64834 46190
L64594 46190
" />
<path d="M64444 46190
L64204 46190
" />
<path d="M63634 46280
L63649 46295
L63694 46310
L63724 46310
L63769 46295
L63799 46265
L63814 46235
L63829 46175
L63829 46130
L63814 46070
L63799 46040
L63769 46010
L63724 45995
L63694 45995
L63649 46010
L63634 46025
" />
<path d="M63364 46100
L63364 46310
" />
<path d="M63439 45980
L63514 46205
L63319 46205
" />
<path d="M63184 46295
L63184 46310
L63199 46340
L63214 46355
" />
<path d="M62629 46280
L62644 46295
L62689 46310
L62719 46310
L62764 46295
L62794 46265
L62809 46235
L62824 46175
L62824 46130
L62809 46070
L62794 46040
L62764 46010
L62719 45995
L62689 45995
L62644 46010
L62629 46025
" />
<path d="M62344 45995
L62494 45995
L62509 46145
L62494 46130
L62464 46115
L62389 46115
L62359 46130
L62344 46145
L62329 46175
L62329 46250
L62344 46280
L62359 46295
L62389 46310
L62464 46310
L62494 46295
L62509 46280
" />
<text x="66300" y="46837"
transform="scale(-1 1) translate(-132600.000000 0)"
textLength="10252.5" font-size="419.947" lengthAdjust="spacingAndGlyphs"
text-anchor="start" opacity="0">33n  -- C10, C11, C12, C13, C16, C17  </text>
<path d="M66229 46507
L66034 46507
L66139 46627
L66094 46627
L66064 46642
L66049 46657
L66034 46687
L66034 46762
L66049 46792
L66064 46807
L66094 46822
L66184 46822
L66214 46807
L66229 46792
" />
<path d="M65929 46507
L65734 46507
L65839 46627
L65794 46627
L65764 46642
L65749 46657
L65734 46687
L65734 46762
L65749 46792
L65764 46807
L65794 46822
L65884 46822
L65914 46807
L65929 46792
" />
<path d="M65599 46612
L65599 46822
" />
<path d="M65599 46642
L65584 46627
L65554 46612
L65509 46612
L65479 46627
L65464 46657
L65464 46822
" />
<path d="M64834 46702
L64594 46702
" />
<path d="M64444 46702
L64204 46702
" />
<path d="M63634 46792
L63649 46807
L63694 46822
L63724 46822
L63769 46807
L63799 46777
L63814 46747
L63829 46687
L63829 46642
L63814 46582
L63799 46552
L63769 46522
L63724 46507
L63694 46507
L63649 46522
L63634 46537
" />
<path d="M63334 46822
L63514 46822
" />
<path d="M63424 46822
L63424 46507
L63454 46552
L63484 46582
L63514 46597
" />
<path d="M63139 46507
L63109 46507
L63079 46522
L63064 46537
L63049 46567
L63034 46627
L63034 46702
L63049 46762
L63064 46792
L63079 46807
L63109 46822
L63139 46822
L63169 46807
L63184 46792
L63199 46762
L63214 46702
L63214 46627
L63199 46567
L63184 46537
L63169 46522
L63139 46507
" />
<path d="M62884 46807
L62884 46822
L62899 46852
L62914 46867
" />
<path d="M62329 46792
L62344 46807
L62389 46822
L62419 46822
L62464 46807
L62494 46777
L62509 46747
L62524 46687
L62524 46642
L62509 46582
L62494 46552
L62464 46522
L62419 46507
L62389 46507
L62344 46522
L62329 46537
" />
<path d="M62029 46822
L62209 46822
" />
<path d="M62119 46822
L62119 46507
L62149 46552
L62179 46582
L62209 46597
" />
<path d="M61729 46822
L61909 46822
" />
<path d="M61819 46822
L61819 46507
L61849 46552
L61879 46582
L61909 46597
" />
<path d="M61579 46807
L61579 46822
L61594 46852
L61609 46867
" />
<path d="M61025 46792
L61040 46807
L61085 46822
L61115 46822
L61160 46807
L61190 46777
L61205 46747
L61220 46687
L61220 46642
L61205 46582
L61190 46552
L61160 46522
L61115 46507
L61085 46507
L61040 46522
L61025 46537
" />
<path d="M60725 46822
L60905 46822
" />
<path d="M60815 46822
L60815 46507
L60845 46552
L60875 46582
L60905 46597
" />
<path d="M60605 46537
L60590 46522
L60560 46507
L60485 46507
L60455 46522
L60440 46537
L60425 46567
L60425 46597
L60440 46642
L60620 46822
L60425 46822
" />
<path d="M60275 46807
L60275 46822
L60290 46852
L60305 46867
" />
<path d="M59720 46792
L59735 46807
L59780 46822
L59810 46822
L59855 46807
L59885 46777
L59900 46747
L59915 46687
L59915 46642
L59900 46582
L59885 46552
L59855 46522
L59810 46507
L59780 46507
L59735 46522
L59720 46537
" />
<path d="M59420 46822
L59600 46822
" />
<path d="M59510 46822
L59510 46507
L59540 46552
L59570 46582
L59600 46597
" />
<path d="M59315 46507
L59120 46507
L59225 46627
L59180 46627
L59150 46642
L59135 46657
L59120 46687
L59120 46762
L59135 46792
L59150 46807
L59180 46822
L59270 46822
L59300 46807
L59315 46792
" />
<path d="M58970 46807
L58970 46822
L58985 46852
L59000 46867
" />
<path d="M58415 46792
L58430 46807
L58475 46822
L58505 46822
L58550 46807
L58580 46777
L58595 46747
L58610 46687
L58610 46642
L58595 46582
L58580 46552
L58550 46522
L58505 46507
L58475 46507
L58430 46522
L58415 46537
" />
<path d="M58115 46822
L58295 46822
" />
<path d="M58205 46822
L58205 46507
L58235 46552
L58265 46582
L58295 46597
" />
<path d="M57845 46507
L57905 46507
L57935 46522
L57950 46537
L57980 46582
L57995 46642
L57995 46762
L57980 46792
L57965 46807
L57935 46822
L57875 46822
L57845 46807
L57830 46792
L57815 46762
L57815 46687
L57830 46657
L57845 46642
L57875 46627
L57935 46627
L57965 46642
L57980 46657
L57995 46687
" />
<path d="M57665 46807
L57665 46822
L57680 46852
L57695 46867
" />
<path d="M57110 46792
L57125 46807
L57170 46822
L57200 46822
L57245 46807
L57275 46777
L57290 46747
L57305 46687
L57305 46642
L57290 46582
L57275 46552
L57245 46522
L57200 46507
L57170 46507
L57125 46522
L57110 46537
" />
<path d="M56810 46822
L56990 46822
" />
<path d="M56900 46822
L56900 46507
L56930 46552
L56960 46582
L56990 46597
" />
<path d="M56705 46507
L56495 46507
L56630 46822
" />
<g >
</g>
</g>
<g style="fill:#000000; fill-opacity:0.0; 
stroke:#000000; stroke-width:39.3701; stroke-opacity:1; 
stroke-linecap:round; stroke-linejoin:round;">
</g>
<g style="fill:#C2C200; fill-opacity:0.0; 
stroke:#C2C200; stroke-width:39.3701; stroke-opacity:1; 
stroke-linecap:round; stroke-linejoin:round;">
<path d="M67100 41000 A1000 1000 0.0 0 0 66100 40000" />
<path d="M40900 40000 A1000 1000 0.0 0 0 39900 41000" />
<path d="M39900 56800 A1000 1000 0.0 0 0 40900 57800" />
<path d="M66100 57800 A1000 1000 0.0 0 0 67100 56800" />
<path d="M67100 41000
L67100 56800
" />
<path d="M40900 40000
L66100 40000
" />
<path d="M39900 56800
L39900 41000
" />
<path d="M66100 57800
L40900 57800
" />
<g >
</g>
<g >
</g>
<g >
</g>
<g >
</g>
<g >
</g>
<g >
</g>
<g >
</g>
<g >
</g>
<g >
</g>
<g >
</g>
<g >
</g>
<g >
</g>
<g >
</g>
<g >
</g>
<g >
</g>
<g >
</g>
<g >
</g>
<g >
</g>
<g >
</g>
<g >
</g>
<g >
</g>
<g >
</g>
<g >
</g>
<g >
</g>
<g >
</g>
<g >
</g>
<g >
</g>
<g >
</g>
<g >
</g>
<g >
</g>
<g >
</g>
<g >
</g>
<g >
</g>
<g >
</g>
<g >
</g>
<g >
</g>
<g >
</g>
<g >
</g>
<g >
</g>
<g >
</g>
<g >
</g>
<g >
</g>
<g >
</g>
<g >
</g>
<g >
</g>
<g >
</g>
<g >
</g>
<g >
</g>
<g >
</g>
<g >
</g>
<g >
</g>
<g >
</g>
<g >
</g>
<g >
</g>
<g >
</g>
<g >
</g>
<g >
</g>
<g >
</g>
<g >
</g>
<g >
</g>
</g> 
</svg>
