<?xml version="1.0" encoding="UTF-8" standalone="no"?>
<!-- Created with Inkscape (http://www.inkscape.org/) -->

<svg
   width="210mm"
   height="297mm"
   viewBox="0 0 210 297"
   version="1.1"
   id="svg5"
   inkscape:version="1.1.1 (3bf5ae0d25, 2021-09-20)"
   sodipodi:docname="AnywhereAmps_Logo.svg"
   xmlns:inkscape="http://www.inkscape.org/namespaces/inkscape"
   xmlns:sodipodi="http://sodipodi.sourceforge.net/DTD/sodipodi-0.dtd"
   xmlns="http://www.w3.org/2000/svg"
   xmlns:svg="http://www.w3.org/2000/svg"
   xmlns:rdf="http://www.w3.org/1999/02/22-rdf-syntax-ns#"
   xmlns:cc="http://creativecommons.org/ns#"
   xmlns:dc="http://purl.org/dc/elements/1.1/">
  <title
     id="title4047">AnywhereAmps Logo</title>
  <sodipodi:namedview
     id="namedview7"
     pagecolor="#ffffff"
     bordercolor="#666666"
     borderopacity="1.0"
     inkscape:pageshadow="2"
     inkscape:pageopacity="0.0"
     inkscape:pagecheckerboard="0"
     inkscape:document-units="mm"
     showgrid="false"
     inkscape:zoom="3.1108586"
     inkscape:cx="415.48015"
     inkscape:cy="343.79576"
     inkscape:window-width="2488"
     inkscape:window-height="1417"
     inkscape:window-x="-8"
     inkscape:window-y="-8"
     inkscape:window-maximized="1"
     inkscape:current-layer="layer1" />
  <defs
     id="defs2" />
  <g
     inkscape:label="Layer 1"
     inkscape:groupmode="layer"
     id="layer1">
    <path
       style="fill:none;stroke:#000000;stroke-width:0.264583px;stroke-linecap:butt;stroke-linejoin:miter;stroke-opacity:1"
       d="m 38.443299,86.92268 39.378866,-41.25 c 0,0 3.742268,-4.422682 3.231957,-1.190722 -0.562783,3.564276 -7.569587,42.270619 -7.569587,42.270619 l -0.08505,0.04252 -5.485826,0.04253 4.125,-14.798968 -14.203608,0.170103 -11.949743,14.73518 z"
       id="path42"
       sodipodi:nodetypes="ccsccccccc" />
    <path
       style="fill:none;stroke:#000000;stroke-width:0.23657px;stroke-linecap:butt;stroke-linejoin:miter;stroke-opacity:1"
       d="m 62.408022,66.788771 10.71528,-11.645013 c 0,0 3.858585,-4.123592 3.52555,-1.48415 -0.318102,2.521087 -3.375563,13.181256 -3.375563,13.181256 z"
       id="path44"
       sodipodi:nodetypes="ccscc" />
    <path
       style="fill:none;stroke:#000000;stroke-width:0.264583px;stroke-linecap:butt;stroke-linejoin:miter;stroke-opacity:1"
       d="m 38.358246,86.624997 39.378869,41.249993 c 0,0 3.74227,4.42268 3.23195,1.19072 -0.56278,-3.56427 -7.56958,-42.270613 -7.56958,-42.270613 l -0.085,-0.0425 -5.48583,-0.0425 4.125,14.798973 -14.203607,-0.17011 -11.949743,-14.735183 z"
       id="path42-5"
       sodipodi:nodetypes="ccsccccccc" />
    <path
       style="fill:none;stroke:#000000;stroke-width:0.23657px;stroke-linecap:butt;stroke-linejoin:miter;stroke-opacity:1"
       d="m 62.429245,106.77394 10.715276,11.64501 c 0,0 3.85859,4.1236 3.52555,1.48415 -0.3181,-2.52108 -3.37556,-13.18125 -3.37556,-13.18125 z"
       id="path44-1"
       sodipodi:nodetypes="ccscc" />
    <path
       style="fill:#666666;stroke-width:0.321455"
       d="m 302.21199,490.44438 c -0.93489,-0.61601 -31.15205,-32.0233 -75.21631,-78.17877 -40.5095,-42.43202 -74.94246,-78.48718 -76.51769,-80.12258 l -2.86406,-2.97345 h 13.04453 13.04453 l 22.12163,27.27952 22.12164,27.27953 26.03783,0.21865 c 14.32081,0.12026 26.66823,0.30353 27.43871,0.40728 l 1.40088,0.18862 -0.20935,-0.9257 c -0.11513,-0.50914 -3.58049,-13.00436 -7.70079,-27.76717 l -7.49144,-26.84146 9.64361,-0.0851 c 5.30398,-0.0468 9.68963,-0.0391 9.74589,0.0171 0.17292,0.17292 22.34258,123.30114 26.78873,148.78211 1.06828,6.12233 1.94233,11.49888 1.94233,11.9479 0,2.12705 -0.94381,2.34625 -3.33067,0.77354 z m -12.42061,-33.97876 c 0.88075,-0.88075 0.83545,-2.68829 -0.19242,-7.67803 -1.40688,-6.82961 -7.03113,-28.34118 -11.1246,-42.54926 l -0.9956,-3.45564 -18.99752,0.042 c -10.44863,0.0231 -20.05071,0.1316 -21.33794,0.24109 l -2.34043,0.19908 19.78829,21.53746 c 10.88356,11.8456 21.4878,23.20981 23.56497,25.25379 6.30311,6.20241 9.8748,8.16994 11.63525,6.40949 z"
       id="path4006"
       transform="scale(0.26458333)" />
  </g>
  <metadata
     id="metadata4045">
    <rdf:RDF>
      <cc:Work
         rdf:about="">
        <dc:title>AnywhereAmps Logo</dc:title>
      </cc:Work>
    </rdf:RDF>
  </metadata>
</svg>
