<?xml version="1.0" encoding="UTF-8" standalone="no"?>
<!-- Created with Inkscape (http://www.inkscape.org/) -->

<svg
   width="210mm"
   height="297mm"
   version="1.1"
   viewBox="0 0 210 297"
   id="svg12"
   sodipodi:docname="AnywhereAmps_Logo_ForCAD.svg"
   inkscape:version="1.1.1 (3bf5ae0d25, 2021-09-20)"
   xmlns:inkscape="http://www.inkscape.org/namespaces/inkscape"
   xmlns:sodipodi="http://sodipodi.sourceforge.net/DTD/sodipodi-0.dtd"
   xmlns="http://www.w3.org/2000/svg"
   xmlns:svg="http://www.w3.org/2000/svg">
  <defs
     id="defs16" />
  <sodipodi:namedview
     id="namedview14"
     pagecolor="#ffffff"
     bordercolor="#666666"
     borderopacity="1.0"
     inkscape:pageshadow="2"
     inkscape:pageopacity="0.0"
     inkscape:pagecheckerboard="0"
     inkscape:document-units="mm"
     showgrid="false"
     inkscape:zoom="7.5887844"
     inkscape:cx="150.94644"
     inkscape:cy="229.48339"
     inkscape:window-width="1830"
     inkscape:window-height="1051"
     inkscape:window-x="-9"
     inkscape:window-y="-9"
     inkscape:window-maximized="1"
     inkscape:current-layer="g10" />
  <g
     fill="none"
     stroke="#000000"
     id="g10"
     transform="matrix(0.86732921,0,0,0.87094172,-22.211028,-29.907818)"
     style="stroke-width:0.525811;stroke-miterlimit:4;stroke-dasharray:none">
    <path
       d="M 57.976649,72.169226 71.115,71.886 l -4.1,15.115 4.1,15.115 L 58.308825,101.74785 45.115,87.001 Z M 77,128 c 0,0 3.7,4.4 3.2,1.2 -0.56,-3.6 -7.6,-42 -7.6,-42 L 72.5575,86.979 C 72.5575,86.979 79.64,48.4 80.2,44.8 80.7,41.6 77,46 77,46 L 38.030631,87.098372 Z"
       stroke-width="0.26px"
       id="path2"
       sodipodi:nodetypes="ccccccccccccccc"
       style="stroke-width:0.525811;stroke-miterlimit:4;stroke-dasharray:none" />
    <path
       d="M 62,67 72.602058,54.886774 c 0,0 3.956849,-4.326452 3.556849,-1.726452 -0.32,2.5 -3.826366,13.60859 -3.826366,13.60859 z"
       stroke-width="0.24px"
       id="path4"
       style="stroke-width:0.525811;stroke-miterlimit:4;stroke-dasharray:none"
       sodipodi:nodetypes="ccccc" />
    <path
       d="m 62,107 10.916747,12.12981 c 0,0 3.488265,3.98677 3.088265,1.38677 -0.32,-2.5 -3.572985,-13.3138 -3.572985,-13.3138 z"
       stroke-width="0.24px"
       id="path8"
       style="stroke-width:0.525811;stroke-miterlimit:4;stroke-dasharray:none"
       sodipodi:nodetypes="ccccc" />
  </g>
</svg>
